<?xml version="1.0" standalone="no"?>
<!DOCTYPE svg PUBLIC "-//W3C//DTD SVG 1.1//EN" "http://www.w3.org/Graphics/SVG/1.1/DTD/svg11.dtd" >
<svg>
<metadata>
Created by FontForge 20090622 at Wed Oct 17 09:04:58 2018
 By deploy user
URW Software, Copyright 1993 by URW
</metadata>
<defs>
<font id="CorporateS-Light" horiz-adv-x="500" >
  <font-face 
    font-family="Corporate S Light"
    font-weight="300"
    font-stretch="normal"
    units-per-em="1000"
    panose-1="0 0 0 0 0 0 0 0 0 0"
    ascent="800"
    descent="-200"
    x-height="473"
    cap-height="667"
    bbox="-155 -250 870 893"
    underline-thickness="49"
    underline-position="-73"
    unicode-range="U+0020-U+FB02"
  />
<missing-glyph horiz-adv-x="250" 
 />
    <glyph glyph-name=".notdef" horiz-adv-x="250" 
 />
    <glyph glyph-name=".null" horiz-adv-x="0" 
 />
    <glyph glyph-name="nonmarkingreturn" horiz-adv-x="333" 
 />
    <glyph glyph-name="space" unicode=" " horiz-adv-x="250" 
 />
    <glyph glyph-name="exclam" unicode="!" horiz-adv-x="248" 
d="M95 656h57l-11 -480h-40zM124 92q21 0 36 -15t15 -37q0 -21 -15 -36t-37 -15q-21 0 -36 15t-15 36q0 22 15 37t37 15z" />
    <glyph glyph-name="quotedbl" unicode="&#x22;" horiz-adv-x="302" 
d="M109 400h-44l-8 267h60zM237 400h-44l-8 267h60z" />
    <glyph glyph-name="numbersign" unicode="#" horiz-adv-x="600" 
d="M537 262l-7 -46h-114l-34 -216h-52l34 216h-157l-35 -216h-51l34 216h-114l7 46h114l24 154h-113l7 46h114l32 205h52l-33 -205h158l33 205h51l-32 -205h114l-8 -46h-113l-25 -154h114zM396 416h-158l-24 -154h158z" />
    <glyph glyph-name="dollar" unicode="$" horiz-adv-x="520" 
d="M276 626v-255q86 -33 118 -55q76 -52 76 -143q0 -78 -53 -128t-141 -56v-67h-33v67q-91 5 -142 54.5t-54 136.5h56q4 -62 41.5 -100t98.5 -40v281q-2 1 -6.5 3t-15 6t-19.5 7q-76 29 -107.5 66.5t-31.5 97.5q0 74 49 122t131 54v62h33v-61q73 -4 120.5 -44t50.5 -102h-60
q-3 39 -33.5 64.5t-77.5 29.5zM243 384v242q-57 -6 -90 -38t-33 -82q0 -62 57 -93q11 -7 66 -29zM276 308v-268q63 6 99 39.5t36 86.5q0 68 -53 104q-22 15 -82 38z" />
    <glyph glyph-name="percent" unicode="%" horiz-adv-x="526" 
d="M435 667h49l-394 -667h-47zM384 314q51 0 86 -46.5t35 -113.5q0 -68 -35 -114t-87 -46q-51 0 -86 46.5t-35 113.5q0 68 35 114t87 46zM383 270q-31 0 -51 -33t-20 -83q0 -49 20.5 -82.5t50.5 -33.5q31 0 51.5 33t20.5 83t-20.5 83t-51.5 33zM142 673q52 0 87 -46t35 -114
t-35 -114t-87 -46q-51 0 -86 46.5t-35 113.5t35 113.5t86 46.5zM142 629q-31 0 -51 -33t-20 -83q0 -49 20.5 -82.5t50.5 -33.5q31 0 51.5 33t20.5 83t-20.5 83t-51.5 33z" />
    <glyph glyph-name="ampersand" unicode="&#x26;" horiz-adv-x="596" 
d="M439 298h48q1 -119 -40 -182l85 -116h-66l-51 69q-67 -74 -170 -74q-89 0 -142.5 47.5t-53.5 126.5q0 58 30 102.5t109 102.5q-52 67 -66 95.5t-14 63.5q0 56 39 91.5t101 35.5q59 0 93.5 -32t34.5 -88q0 -47 -25.5 -87t-86.5 -89l149 -203q25 42 26 137zM232 406
q50 38 70.5 69t20.5 67q0 32 -21.5 52t-55.5 20q-36 0 -60 -21.5t-24 -53.5q0 -25 9 -44t50 -74q6 -9 11 -15zM384 111l-164 220q-50 -37 -72 -59q-42 -44 -42 -101q0 -55 40.5 -92.5t100.5 -37.5q82 0 137 70z" />
    <glyph glyph-name="quotesingle" unicode="'" horiz-adv-x="250" 
d="M147 400h-44l-8 267h60z" />
    <glyph glyph-name="parenleft" unicode="(" horiz-adv-x="272" 
d="M198 672h41q-107 -138 -107 -436q0 -289 107 -436h-41q-121 141 -121 436q0 303 121 436z" />
    <glyph glyph-name="parenright" unicode=")" horiz-adv-x="272" 
d="M74 -200h-41q107 147 107 436q0 298 -107 436h41q121 -133 121 -436q0 -295 -121 -436z" />
    <glyph glyph-name="asterisk" unicode="*" 
d="M228 526v124h45v-124l118 38l14 -43l-118 -38l73 -101l-37 -26l-72 100l-73 -100l-37 27l73 100l-118 38l14 43z" />
    <glyph glyph-name="plus" unicode="+" horiz-adv-x="520" 
d="M279 355h186v-38h-186v-192h-40v192h-185v38h185v192h40v-192z" />
    <glyph glyph-name="comma" unicode="," horiz-adv-x="234" 
d="M101 -119h-63q70 65 78 117h-9q-19 0 -33.5 15t-14.5 35q0 22 16 37.5t39 15.5q26 0 42 -18.5t16 -48.5q0 -70 -71 -153z" />
    <glyph glyph-name="hyphen" unicode="-" horiz-adv-x="279" 
d="M0 273h279v-43h-279v43z" />
    <glyph glyph-name="period" unicode="." horiz-adv-x="257" 
d="M129 92q21 0 36 -15t15 -37q0 -21 -15 -36t-37 -15q-21 0 -36 15t-15 36q0 22 15 37t37 15z" />
    <glyph glyph-name="slash" unicode="/" horiz-adv-x="575" 
d="M66 -133l382 800h62l-382 -800h-62z" />
    <glyph glyph-name="zero" unicode="0" horiz-adv-x="520" 
d="M262 659q94 0 148.5 -90t54.5 -244q0 -171 -70 -267q-49 -66 -136 -66q-86 0 -135 66q-70 96 -70 265q0 159 55 247.5t153 88.5zM262 611q-72 0 -107 -65q-43 -83 -43 -222q0 -133 43 -219q34 -65 105 -65q70 0 103 65q44 82 44 220q0 139 -44 221q-33 65 -101 65z" />
    <glyph glyph-name="one" unicode="1" horiz-adv-x="520" 
d="M122 521v40q61 2 92 24t41 71h38v-656h-53v521h-118z" />
    <glyph glyph-name="two" unicode="2" horiz-adv-x="520" 
d="M141 460h-54q1 97 49 148t137 51q77 0 124 -42t47 -111q0 -43 -18 -80t-82 -123l-189 -254h300v-49h-369v43l192 260q75 103 84 119q24 44 24 84q0 47 -32 75t-84 28q-120 0 -129 -149z" />
    <glyph glyph-name="three" unicode="3" horiz-adv-x="520" 
d="M131 486h-51q5 83 51.5 128t127.5 45q78 0 126 -43.5t48 -114.5q0 -101 -96 -145q120 -44 120 -166q0 -90 -55 -144.5t-146 -54.5t-143.5 48t-52.5 132v11h51q1 -69 37 -105t104 -36q69 0 108 38.5t39 106.5q0 67 -39.5 103.5t-111.5 36.5q-15 0 -27 -2v52l27 -1
q58 0 92.5 33.5t34.5 88.5q0 52 -32 82t-87 30t-85.5 -30t-39.5 -93z" />
    <glyph glyph-name="four" unicode="4" horiz-adv-x="520" 
d="M363 216h112v-51h-111v-171h-56v171h-266v42l269 449h52v-440zM309 216l3 359l-214 -359h211z" />
    <glyph glyph-name="five" unicode="5" horiz-adv-x="520" 
d="M137 650h289l-9 -49h-232l-29 -212q45 52 117 52q84 0 135 -58.5t51 -155.5q0 -79 -38 -143q-56 -92 -165 -92q-74 0 -121 42.5t-52 113.5h52q9 -52 40.5 -80t80.5 -28q65 0 105.5 52t40.5 134q0 74 -36 119t-96 45q-81 0 -121 -77l-52 5z" />
    <glyph glyph-name="six" unicode="6" horiz-adv-x="520" 
d="M331 667h62q-116 -126 -193 -256q41 23 83 23q76 0 126.5 -62t50.5 -156q0 -100 -51.5 -162t-134.5 -62t-135.5 62t-52.5 161q0 193 245 452zM275 386q-59 0 -95 -48t-36 -126q0 -76 36 -124t93 -48t93 48.5t36 124.5t-35.5 124.5t-91.5 48.5z" />
    <glyph glyph-name="seven" unicode="7" horiz-adv-x="520" 
d="M102 650h393v-49l-321 -601h-63l322 599h-331v51z" />
    <glyph glyph-name="eight" unicode="8" horiz-adv-x="520" 
d="M170 342q-81 40 -81 143q0 74 49 124t121 50q73 0 122 -50t49 -124q0 -104 -80 -143q99 -52 99 -167q0 -81 -52.5 -132t-136.5 -51t-136.5 51t-52.5 132q0 115 99 167zM261 611q-51 0 -82.5 -34.5t-31.5 -90.5q0 -55 31.5 -89.5t81.5 -34.5t81 35t31 90q0 54 -31 89
t-80 35zM262 317q-61 0 -97 -38t-36 -101q0 -62 36.5 -100t94.5 -38t94.5 38t36.5 100t-36 100.5t-93 38.5z" />
    <glyph glyph-name="nine" unicode="9" horiz-adv-x="520" 
d="M188 -17h-62q120 132 193 256q-39 -23 -83 -23q-76 0 -126.5 62t-50.5 156q0 101 51.5 163t134.5 62t135.5 -62t52.5 -161q0 -98 -59 -206.5t-186 -246.5zM246 611q-57 0 -93 -48.5t-36 -124.5t35.5 -125t91.5 -49q59 0 95 48t36 126q0 76 -36 124.5t-93 48.5z" />
    <glyph glyph-name="colon" unicode=":" horiz-adv-x="257" 
d="M129 92q21 0 36 -15t15 -37q0 -21 -15 -36t-37 -15q-21 0 -36 15t-15 36q0 22 15 37t37 15zM129 473q21 0 36 -15t15 -37q0 -21 -15 -36t-37 -15q-21 0 -36 15t-15 36q0 22 15 37t37 15z" />
    <glyph glyph-name="semicolon" unicode=";" horiz-adv-x="234" 
d="M111 473q21 0 36 -15t15 -37q0 -21 -15 -36t-37 -15q-21 0 -36 15t-15 36q0 22 15 37t37 15zM101 -119h-63q70 65 78 117h-9q-19 0 -33.5 15t-14.5 35q0 22 16 37.5t39 15.5q26 0 42 -18.5t16 -48.5q0 -70 -71 -153z" />
    <glyph glyph-name="less" unicode="&#x3c;" 
d="M466 555v-52l-377 -168l377 -167v-52l-433 196v47z" />
    <glyph glyph-name="equal" unicode="=" horiz-adv-x="520" 
d="M54 417h411v-40h-411v40zM54 295h411v-40h-411v40z" />
    <glyph glyph-name="greater" unicode="&#x3e;" 
d="M34 116v52l377 167l-377 168v52l433 -197v-46z" />
    <glyph glyph-name="question" unicode="?" horiz-adv-x="410" 
d="M180 92q21 0 36 -15t15 -37q0 -21 -15 -36t-37 -15q-21 0 -36 15t-15 36q0 22 15 37t37 15zM208 179h-54q-1 16 -1 61q0 67 10.5 91t60.5 74q39 40 53.5 65.5t14.5 53.5q0 38 -24 60t-66 22q-49 0 -74.5 -24.5t-31.5 -76.5h-50q4 74 44.5 114t113.5 40q68 0 108 -37
t40 -101q0 -39 -17.5 -69.5t-69.5 -79.5q-42 -40 -50 -62t-8 -95q0 -21 1 -36z" />
    <glyph glyph-name="at" unicode="@" horiz-adv-x="733" 
d="M503 494h41l-42 -217q-6 -28 -6 -48q0 -23 11.5 -36.5t30.5 -13.5q47 0 83 61t36 141q0 116 -76 188t-199 72q-131 0 -217 -87.5t-86 -220.5q0 -128 81 -217q84 -90 234 -90q111 0 218 52l13 -37q-107 -53 -231 -53q-166 0 -262 98q-45 46 -71 112.5t-26 136.5
q0 148 99.5 246t249.5 98q138 0 226.5 -83.5t88.5 -213.5q0 -95 -49 -167t-114 -72q-31 0 -50.5 19t-21.5 51q-47 -73 -125 -73q-61 0 -100.5 46t-39.5 117q0 85 51 144.5t124 59.5q86 0 115 -85zM375 465q-53 0 -90.5 -47.5t-37.5 -115.5q0 -56 26.5 -89t71.5 -33
q54 0 89.5 50t35.5 126q0 51 -25.5 80t-69.5 29z" />
    <glyph glyph-name="A" unicode="A" horiz-adv-x="554" 
d="M255 672h44l231 -672h-60l-65 189h-256l-66 -189h-59zM388 239l-111 352l-112 -352h223z" />
    <glyph glyph-name="B" unicode="B" horiz-adv-x="537" 
d="M88 667h103q119 0 166 -16q49 -17 76 -56t27 -94q0 -113 -112 -147q146 -36 146 -170q0 -61 -29 -106t-78 -61q-52 -17 -196 -17h-103v667zM145 373h65q97 0 138 24q53 32 53 103q0 81 -67 104q-33 13 -126 13h-63v-244zM145 50h70q112 0 154 18q29 13 46 44.5t17 74.5
q0 45 -22.5 78t-62.5 46q-41 12 -133 12h-69v-273z" />
    <glyph glyph-name="C" unicode="C" horiz-adv-x="602" 
d="M542 493h-56q-32 134 -163 134q-94 0 -149 -79t-55 -214q0 -137 55 -215.5t151 -78.5q74 0 118.5 45.5t54.5 133.5h55q-11 -110 -69.5 -170t-155.5 -60q-125 0 -198 92.5t-73 250.5q0 157 72.5 251.5t194.5 94.5q89 0 146.5 -49t71.5 -136z" />
    <glyph glyph-name="D" unicode="D" horiz-adv-x="620" 
d="M88 667h85q107 0 153.5 -7.5t89.5 -31.5q69 -39 108.5 -117.5t39.5 -176.5q0 -103 -42.5 -182.5t-118.5 -117.5q-41 -21 -86 -27.5t-148 -6.5h-81v667zM145 50h45h37q76 0 123.5 17t83.5 57q68 74 68 209q0 94 -34 161t-96 98q-34 16 -69.5 20.5t-126.5 4.5h-31v-567z
" />
    <glyph glyph-name="E" unicode="E" horiz-adv-x="490" 
d="M145 370h272v-50h-272v-270h296v-50h-353v667h349v-50h-292v-247z" />
    <glyph glyph-name="F" unicode="F" horiz-adv-x="477" 
d="M145 370h272v-50h-272v-320h-57v667h349v-50h-292v-247z" />
    <glyph glyph-name="G" unicode="G" horiz-adv-x="615" 
d="M359 327h191v-273q-90 -65 -210 -65q-134 0 -208.5 91t-74.5 254q0 158 73.5 251t198.5 93q89 0 144 -48.5t68 -136.5h-56q-18 70 -56 102t-102 32q-97 0 -152.5 -78t-55.5 -214q0 -142 57 -218.5t163 -76.5q79 0 156 43v190h-136v54z" />
    <glyph glyph-name="H" unicode="H" horiz-adv-x="619" 
d="M145 373h329v294h57v-667h-57v326h-329v-326h-57v667h57v-294z" />
    <glyph glyph-name="I" unicode="I" horiz-adv-x="232" 
d="M145 0h-59v667h59v-667z" />
    <glyph glyph-name="J" unicode="J" horiz-adv-x="272" 
d="M127 667h59v-532q0 -62 -2.5 -84.5t-11.5 -42.5q-35 -80 -153 -80q-11 0 -20 1v50q4 -1 10 -1q73 0 100 40q12 16 15 36.5t3 81.5v531z" />
    <glyph glyph-name="K" unicode="K" horiz-adv-x="536" 
d="M425 667h71l-279 -318l309 -349h-82l-298 348zM88 667h57v-667h-57v667z" />
    <glyph glyph-name="L" unicode="L" horiz-adv-x="462" 
d="M88 667h59v-617h284v-50h-343v667z" />
    <glyph glyph-name="M" unicode="M" horiz-adv-x="762" 
d="M88 667h92l201 -603l201 603h92v-667h-57v615l-207 -615h-57l-208 615v-615h-57v667z" />
    <glyph glyph-name="N" unicode="N" horiz-adv-x="627" 
d="M88 667h63l336 -584v584h53v-667h-66l-332 582v-582h-54v667z" />
    <glyph glyph-name="O" unicode="O" horiz-adv-x="637" 
d="M319 678q115 0 188.5 -96t73.5 -248t-73 -248.5t-188 -96.5q-118 0 -190.5 96.5t-72.5 252.5q0 148 74 244t188 96zM319 627q-87 0 -143.5 -82t-56.5 -208q0 -131 56 -214t144 -83t144 82.5t56 211.5q0 128 -56 210.5t-144 82.5z" />
    <glyph glyph-name="P" unicode="P" horiz-adv-x="513" 
d="M88 667h95q130 0 182 -17q54 -18 85 -66t31 -113q0 -122 -95 -167q-32 -14 -70 -19t-119 -5h-52v-280h-57v667zM145 330h50q84 0 126 9q98 20 98 133q0 47 -20 81.5t-56 47.5q-26 10 -55 13t-107 3h-36v-287z" />
    <glyph glyph-name="Q" unicode="Q" horiz-adv-x="644" 
d="M533 125l128 -136h-71l-88 89q-72 -89 -183 -89q-115 0 -188.5 96t-73.5 248t73 248.5t189 96.5q115 0 188.5 -96t73.5 -248q0 -119 -48 -209zM319 627q-87 0 -143.5 -82t-56.5 -208q0 -131 56 -214t144 -83t144 82.5t56 211.5q0 128 -56 210.5t-144 82.5z" />
    <glyph glyph-name="R" unicode="R" horiz-adv-x="552" 
d="M88 667h102q77 0 110.5 -3.5t66.5 -14.5q52 -17 82 -61t30 -104q0 -132 -144 -180l183 -304h-70l-179 296h-124v-296h-57v667zM145 346h47q104 0 144 14q81 28 81 125q0 88 -70 117q-40 15 -154 15h-48v-271z" />
    <glyph glyph-name="S" unicode="S" horiz-adv-x="541" 
d="M459 502h-56q-6 61 -41 93t-95 32q-56 0 -93 -31.5t-37 -79.5q0 -47 42 -78q22 -16 121 -62q113 -52 143 -93q36 -45 36 -109q0 -82 -58.5 -133.5t-151.5 -51.5q-114 0 -170 73q-38 49 -42 133h57q4 -74 44.5 -114.5t112.5 -40.5q65 0 106.5 36.5t41.5 93.5q0 52 -38 88
q-25 24 -100 58q-113 53 -139 72q-63 49 -63 124q0 72 54 119t138 47q85 0 134 -46.5t54 -129.5z" />
    <glyph glyph-name="T" unicode="T" horiz-adv-x="450" 
d="M24 667h402v-50h-172v-617h-57v617h-173v50z" />
    <glyph glyph-name="U" unicode="U" horiz-adv-x="608" 
d="M78 667h57v-396q1 -92 5.5 -120.5t22.5 -52.5q43 -58 141 -58q56 0 97.5 21t57.5 58q10 21 12 46t3 106v396h57v-397v-49q0 -96 -31 -143q-58 -89 -196 -89q-73 0 -126.5 27.5t-78.5 78.5q-21 42 -21 126v49v397z" />
    <glyph glyph-name="V" unicode="V" horiz-adv-x="545" 
d="M16 667h60l200 -600l196 600h59l-230 -673h-56z" />
    <glyph glyph-name="W" unicode="W" horiz-adv-x="746" 
d="M21 667h55l129 -584l144 584h49l143 -584l131 584h55l-155 -673h-59l-140 551l-139 -551h-59z" />
    <glyph glyph-name="X" unicode="X" horiz-adv-x="529" 
d="M33 667h66l166 -272l166 272h67l-200 -317l210 -350h-65l-178 295l-177 -295h-65l209 350z" />
    <glyph glyph-name="Y" unicode="Y" horiz-adv-x="495" 
d="M16 667h67l166 -327l164 327h67l-205 -381l1 -286h-56l1 286z" />
    <glyph glyph-name="Z" unicode="Z" horiz-adv-x="490" 
d="M52 667h403v-39l-355 -578h349v-50h-416v44l351 573h-332v50z" />
    <glyph glyph-name="bracketleft" unicode="[" horiz-adv-x="272" 
d="M97 667h133v-44h-81v-773h81v-44h-133v861z" />
    <glyph glyph-name="backslash" unicode="\" horiz-adv-x="575" 
d="M510 -133h-62l-382 800h62z" />
    <glyph glyph-name="bracketright" unicode="]" horiz-adv-x="272" 
d="M175 -194h-133v44h81v773h-81v44h133v-861z" />
    <glyph glyph-name="asciicircum" unicode="^" 
d="M91 376h-58l183 292h68l183 -292h-58l-160 251z" />
    <glyph glyph-name="underscore" unicode="_" 
d="M0 -72h500v-49h-500v49z" />
    <glyph glyph-name="grave" unicode="`" 
d="M303 559h-47l-132 128h83z" />
    <glyph glyph-name="a" unicode="a" horiz-adv-x="463" 
d="M119 355h-54q7 64 50 97.5t118 33.5q56 0 95.5 -21.5t51.5 -58.5q9 -28 9 -102v-173v-38q0 -56 12 -93h-52q-8 28 -12 67q-43 -79 -140 -79q-67 0 -107.5 37.5t-40.5 98.5q0 77 64.5 118.5t223.5 65.5v25q0 58 -24 82t-81 24q-98 0 -113 -84zM337 213v54
q-130 -25 -181.5 -57t-51.5 -85q0 -40 27 -65t71 -25q79 0 114 63q21 38 21 115z" />
    <glyph glyph-name="b" unicode="b" horiz-adv-x="494" 
d="M75 669h52v-267q50 84 138 84q82 0 131.5 -67.5t49.5 -179.5q0 -113 -51 -182t-136 -69q-44 0 -75.5 18.5t-56.5 61.5v-14q0 -25 -8 -54h-54q10 34 10 137v532zM266 439q-64 0 -102 -56t-38 -149q0 -89 37 -144t97 -55t96 55t36 148q0 91 -34.5 146t-91.5 55z" />
    <glyph glyph-name="c" unicode="c" horiz-adv-x="467" 
d="M413 320h-52q-9 58 -39 88.5t-77 30.5q-64 0 -103 -56t-39 -147t39.5 -146t104.5 -55q50 0 80.5 32.5t36.5 92.5h54q-8 -83 -51.5 -127.5t-116.5 -44.5q-92 0 -146.5 67t-54.5 180t54 182t143 69q72 0 115.5 -43.5t51.5 -122.5z" />
    <glyph glyph-name="d" unicode="d" horiz-adv-x="494" 
d="M419 669v-532q0 -105 10 -137h-54q-8 25 -8 54v14q-25 -43 -56.5 -61.5t-75.5 -18.5q-86 0 -136.5 66t-50.5 178q0 116 49.5 185t132.5 69q95 0 137 -84v267h52zM237 439q-63 0 -99 -54.5t-36 -149.5q0 -91 36 -145.5t97 -54.5t97 54.5t36 146.5t-36 147.5t-95 55.5z" />
    <glyph glyph-name="e" unicode="e" horiz-adv-x="476" 
d="M427 231h-323q2 -96 39 -146t105 -50q41 0 67.5 18t48.5 60l51 -9q-44 -116 -167 -116q-92 0 -145.5 65t-53.5 178q0 116 53 185.5t141 69.5q84 0 134 -64.5t50 -172.5v-18zM105 274h266q-5 78 -39 121.5t-91 43.5q-56 0 -91.5 -43t-44.5 -122z" />
    <glyph glyph-name="f" unicode="f" horiz-adv-x="269" 
d="M139 473h120v-43h-117v-430h-57v430h-68v43h68v31q0 56 3.5 78t14.5 42q30 54 101 54q29 0 65 -12v-53q-29 18 -60 18q-49 0 -64 -43q-6 -20 -6 -76v-39z" />
    <glyph glyph-name="g" unicode="g" horiz-adv-x="468" 
d="M445 473v-42l-97 3q47 -41 47 -116q0 -71 -45 -108q-15 -13 -35 -20.5t-76 -22.5q-54 -14 -76.5 -27t-22.5 -30q0 -18 20 -23q10 -3 72 -10q71 -7 100 -13t53 -19q61 -34 61 -107q0 -66 -56 -104.5t-152 -38.5q-93 0 -149 37.5t-56 99.5q0 82 101 118q-50 19 -50 54
q0 25 19 42t66 35q-99 35 -99 137q0 71 45.5 115t121.5 44q32 0 68 -9zM237 433q-49 0 -80.5 -32t-31.5 -82q0 -47 30 -76.5t79 -29.5t78 29t29 77q0 49 -29.5 81.5t-74.5 32.5zM238 23q-73 0 -114 -23.5t-41 -65.5q0 -41 42.5 -66t112.5 -25q73 0 114.5 24.5t41.5 66.5
q0 89 -156 89z" />
    <glyph glyph-name="h" unicode="h" horiz-adv-x="485" 
d="M75 669h52v-252q51 69 136 69q90 0 128 -63q13 -22 17 -51t4 -101v-271h-52v275q0 89 -15 118q-26 46 -87 46q-74 0 -108 -61q-23 -39 -23 -112v-266h-52v669z" />
    <glyph glyph-name="i" unicode="i" horiz-adv-x="207" 
d="M75 473h57v-473h-57v473zM103 675q19 0 31.5 -13t12.5 -32q0 -18 -12.5 -30.5t-31.5 -12.5t-31.5 12t-12.5 31t12.5 32t31.5 13z" />
    <glyph glyph-name="j" unicode="j" horiz-adv-x="245" 
d="M113 473h57v-441q0 -72 -5 -104.5t-19 -55.5q-37 -61 -140 -61q-16 0 -29 1v47q9 -1 18 -1q75 0 100 40q18 30 18 134v441zM140 675q19 0 31.5 -13t12.5 -32q0 -18 -12.5 -30.5t-31.5 -12.5t-31.5 12t-12.5 31t12.5 32t31.5 13z" />
    <glyph glyph-name="k" unicode="k" horiz-adv-x="463" 
d="M337 473h64l-204 -211l218 -262h-74l-212 260zM75 669h52v-669h-52v669z" />
    <glyph glyph-name="l" unicode="l" horiz-adv-x="207" 
d="M75 669h57v-669h-57v669z" />
    <glyph glyph-name="m" unicode="m" horiz-adv-x="741" 
d="M64 473h51q9 -25 9 -66q40 79 135 79q98 0 129 -84q42 84 144 84q85 0 118 -57q12 -20 15.5 -44.5t3.5 -89.5v-295h-52v295q0 52 -2.5 70.5t-12.5 34.5q-22 39 -83 39q-71 0 -102 -59q-18 -33 -18 -96v-284h-53v284q0 85 -11 109q-22 46 -85 46q-67 0 -101 -53
q-22 -37 -22 -106v-280h-52v315q0 82 -2 110q-2 22 -9 48z" />
    <glyph glyph-name="n" unicode="n" horiz-adv-x="491" 
d="M64 473h51q9 -28 9 -71q48 84 145 84q51 0 87.5 -21t49.5 -59q8 -23 10 -44t2 -91v-271h-52v275q0 57 -2.5 78.5t-11.5 39.5q-23 46 -87 46q-74 0 -113 -61q-25 -40 -25 -106v-272h-52v315q0 85 -1.5 105t-9.5 53z" />
    <glyph glyph-name="o" unicode="o" horiz-adv-x="493" 
d="M247 486q89 0 143.5 -69t54.5 -181q0 -111 -54.5 -179.5t-143.5 -68.5q-90 0 -144 69t-54 183q0 109 55 177.5t143 68.5zM247 439q-64 0 -104 -55.5t-40 -144.5q0 -93 39.5 -148.5t104.5 -55.5q64 0 104 55.5t40 145.5q0 91 -40 147t-104 56z" />
    <glyph glyph-name="p" unicode="p" horiz-adv-x="494" 
d="M75 -197v532q0 104 -10 138h54q7 -22 9 -74q46 88 136 88q81 0 131 -70t50 -183t-48 -179.5t-129 -66.5q-91 0 -140 81v-266h-53zM263 440q-61 0 -99 -57t-38 -146q0 -90 38 -146t99 -56t94.5 52.5t33.5 146.5t-35 150t-93 56z" />
    <glyph glyph-name="q" unicode="q" horiz-adv-x="494" 
d="M366 -197v266q-49 -81 -135 -81q-83 0 -132.5 66.5t-49.5 176.5q0 113 51.5 184t133.5 71q47 0 78 -20t54 -66q1 46 9 73h54q-10 -33 -10 -138v-532h-53zM235 439q-59 0 -95.5 -57.5t-36.5 -150.5q0 -90 34 -143t92 -53q63 0 101 55.5t38 146.5q0 90 -37 146t-96 56z" />
    <glyph glyph-name="r" unicode="r" horiz-adv-x="310" 
d="M68 473h49q8 -40 8 -72q0 -17 -1 -30q46 115 120 115q31 0 63 -16v-52q-40 17 -61 17q-27 0 -52.5 -21t-42.5 -58q-23 -50 -23 -147v-209h-53v304q0 108 -7 169z" />
    <glyph glyph-name="s" unicode="s" horiz-adv-x="423" 
d="M369 347h-51q-10 92 -104 92q-44 0 -71.5 -22t-27.5 -57q0 -31 22 -48t87 -37q102 -30 128 -60q27 -30 27 -82q0 -67 -44.5 -106t-119.5 -39q-82 0 -125.5 40t-43.5 114h51q11 -107 118 -107q49 0 79 25.5t30 66.5q0 42 -31 63q-15 11 -107 39q-68 21 -96.5 50.5
t-28.5 78.5q0 57 43 92.5t111 35.5q72 0 111.5 -35.5t42.5 -103.5z" />
    <glyph glyph-name="t" unicode="t" horiz-adv-x="299" 
d="M152 473h118v-43h-119l-5 -259l-1 -51q0 -48 7 -61q12 -23 48 -23q33 0 68 16v-48q-39 -13 -77 -13q-54 0 -77.5 22t-23.5 73q0 14 2 50l1 38l6 256h-71v43h72l2 137h52z" />
    <glyph glyph-name="u" unicode="u" horiz-adv-x="478" 
d="M73 473h52v-295q0 -77 18 -104q27 -39 85 -39q68 0 103 59q21 35 21 107v272h52v-330q0 -81 1.5 -100t9.5 -43h-53q-10 31 -10 67q-20 -42 -49.5 -60.5t-75.5 -18.5q-98 0 -138 76q-16 31 -16 116v293z" />
    <glyph glyph-name="v" unicode="v" horiz-adv-x="408" 
d="M10 473h55l139 -416l140 416h53l-167 -480h-53z" />
    <glyph glyph-name="w" unicode="w" horiz-adv-x="631" 
d="M16 473h55l106 -388l115 388h48l115 -388l106 388h55l-136 -480h-48l-116 401l-116 -401h-48z" />
    <glyph glyph-name="x" unicode="x" horiz-adv-x="421" 
d="M33 473h60l119 -181l120 181h64l-152 -222l170 -251h-63l-139 209l-142 -209h-62l172 251z" />
    <glyph glyph-name="y" unicode="y" horiz-adv-x="417" 
d="M16 473h56l136 -405l141 405h55l-154 -433q-32 -91 -45 -121t-31 -55q-46 -63 -131 -63h-17v47q64 -1 92 27.5t61 125.5z" />
    <glyph glyph-name="z" unicode="z" horiz-adv-x="389" 
d="M41 473h330v-37l-288 -393h280v-43h-341v41l284 389h-265v43z" />
    <glyph glyph-name="braceleft" unicode="{" horiz-adv-x="272" 
d="M153 523v-170q0 -48 -11.5 -73t-43.5 -44q32 -19 43.5 -43.5t11.5 -73.5v-170q0 -64 18.5 -85.5t73.5 -22.5v-41h-10q-74 0 -103 35t-29 126v158q0 45 -13 67.5t-44 31.5v36q32 10 44.5 32t12.5 67v159q0 91 29 126t104 35q5 0 9 -1v-40q-56 -2 -74 -23.5t-18 -85.5z" />
    <glyph glyph-name="bar" unicode="|" 
d="M224 667h52v-834h-52v834z" />
    <glyph glyph-name="braceright" unicode="}" horiz-adv-x="272" 
d="M119 -51v170q0 49 11.5 73.5t43.5 43.5q-32 19 -43.5 44t-11.5 73v170q0 64 -18 85.5t-74 23.5v40q4 1 9 1q72 0 104 -36q29 -34 29 -125v-158q0 -45 12.5 -67t44.5 -33v-36q-32 -10 -44.5 -32t-12.5 -67v-158q0 -91 -29 -126t-103 -35h-10v41q55 1 73.5 22.5t18.5 85.5z
" />
    <glyph glyph-name="asciitilde" unicode="~" horiz-adv-x="667" 
d="M127 591l-33 21q28 56 59.5 81t72.5 25q37 0 115 -39q70 -35 100 -35t51.5 16.5t46.5 59.5l33 -20q-54 -105 -136 -105q-23 0 -48 9t-91 42q-47 23 -75 23t-50 -18t-45 -60z" />
    <glyph glyph-name="exclamdown" unicode="&#xa1;" horiz-adv-x="248" 
d="M153 -194h-58l11 479h40zM124 473q21 0 36 -15t15 -36q0 -22 -15 -37t-37 -15q-21 0 -36 15t-15 37q0 21 15 36t37 15z" />
    <glyph glyph-name="cent" unicode="&#xa2;" horiz-adv-x="520" 
d="M280 536v-405q46 2 74.5 35.5t33.5 90.5h54q-2 -74 -48 -123t-114 -50v-106h-33v107q-76 11 -119 76.5t-43 167.5t43 169t119 84v101h33v-99q70 -2 112.5 -47.5t43.5 -119.5h-53q-5 116 -103 119zM247 134v399q-50 -16 -79.5 -70.5t-29.5 -131.5q0 -112 60 -172
q18 -17 49 -25z" />
    <glyph glyph-name="sterling" unicode="&#xa3;" horiz-adv-x="520" 
d="M223 363h148v-49h-156q-33 -193 -70 -269q40 7 95 7h36q26 -1 53 -1q36 0 51.5 4t26.5 16q18 18 21 60h52q0 -64 -37 -100q-21 -20 -46.5 -25.5t-94.5 -5.5h-230q43 74 86 314h-101v49h110q21 137 36 195q16 64 46 92t83 28q75 0 100 -54q12 -23 13 -71h-52q-4 39 -13 54
q-16 21 -49 21q-34 0 -50 -21t-29 -81q-14 -65 -29 -163z" />
    <glyph glyph-name="currency" unicode="&#xa4;" horiz-adv-x="667" 
d="M66 119l90 92q-52 67 -52 144q0 73 52 142l-93 92l32 32l92 -92q70 54 146 54q78 0 144 -53l93 91l32 -32l-92 -92q52 -68 52 -143t-52 -143l93 -92l-32 -32l-92 92q-68 -52 -144 -52t-146 52l-92 -92zM335 533q-75 0 -127 -52t-52 -127q0 -73 52 -125t125 -52t125 51.5
t52 125.5t-51.5 126.5t-123.5 52.5z" />
    <glyph glyph-name="yen" unicode="&#xa5;" horiz-adv-x="520" 
d="M365 417h100v-40h-121l-43 -82h164v-40h-173l1 -255h-58l2 255h-183v40h174l-45 82h-129v40h107l-136 250h65l173 -329l170 329h61z" />
    <glyph glyph-name="brokenbar" unicode="&#xa6;" 
d="M224 667h52v-328h-52v328zM224 153h52v-320h-52v320z" />
    <glyph glyph-name="section" unicode="&#xa7;" 
d="M418 499h-54q-4 58 -32 86t-81 28q-49 0 -79.5 -27t-30.5 -70t37 -71q19 -14 95 -57q95 -53 122 -81t27 -73q0 -77 -87 -124q36 -29 51.5 -57t15.5 -65q0 -71 -46 -112.5t-125 -41.5q-166 0 -172 164h53q5 -54 23 -77q31 -41 96 -41q55 0 86.5 28.5t31.5 78.5
q0 47 -43 80q-33 22 -95 59q-60 36 -81.5 51t-34.5 31q-26 31 -26 70q0 72 93 118q-74 46 -74 117q0 64 46.5 105t117.5 41q75 0 119.5 -42.5t46.5 -117.5zM204 369q-82 -34 -82 -91q0 -39 50 -71q58 -38 122 -72q35 15 54.5 40.5t19.5 55.5q0 38 -34 61q-41 29 -130 77z
" />
    <glyph glyph-name="dieresis" unicode="&#xa8;" 
d="M165 673q20 0 33.5 -14t13.5 -34q0 -19 -14 -33t-33 -14q-20 0 -34 13.5t-14 33.5t14 34t34 14zM335 673q20 0 33.5 -14t13.5 -34q0 -19 -14 -33t-33 -14q-20 0 -34 13.5t-14 33.5t14 34t34 14z" />
    <glyph glyph-name="copyright" unicode="&#xa9;" horiz-adv-x="802" 
d="M406 680q140 0 240 -101.5t100 -243.5q0 -143 -101 -243.5t-243 -100.5q-143 0 -244 101t-101 243q0 145 101.5 245t247.5 100zM405 644q-129 0 -218 -90t-89 -220q0 -128 89 -218.5t215 -90.5q125 0 214 91t89 219q0 127 -88.5 218t-211.5 91zM555 429h-43
q-19 79 -99 79q-58 0 -91.5 -45.5t-33.5 -123.5q0 -79 33.5 -124t91.5 -45q94 0 106 106h43q-7 -70 -45 -107t-102 -37q-79 0 -126.5 56t-47.5 151q0 94 47 150.5t125 56.5q60 0 97 -30.5t45 -86.5z" />
    <glyph glyph-name="ordfeminine" unicode="&#xaa;" 
d="M181 588h-40q9 87 110 87q37 0 62.5 -14t33.5 -37q6 -18 6 -64v-107v-23q0 -36 9 -60h-39q-7 21 -8 35q-20 -24 -39 -33.5t-48 -9.5q-43 0 -70 24t-27 63q0 48 41 74t142 42v17q0 30 -15 44t-49 14q-60 0 -69 -52zM314 504v29q-79 -15 -110.5 -33t-31.5 -49
q0 -25 16 -39.5t43 -14.5q83 0 83 107zM118 317h257v-35h-257v35z" />
    <glyph glyph-name="guillemotleft" unicode="&#xab;" horiz-adv-x="345" 
d="M275 0h-34l-84 233l84 239h34l-72 -239zM166 0h-34l-84 233l84 239h34l-73 -239z" />
    <glyph glyph-name="logicalnot" unicode="&#xac;" 
d="M414 0v219h-381v48h433v-267h-52z" />
    <glyph glyph-name="registered" unicode="&#xae;" horiz-adv-x="802" 
d="M406 680q140 0 240 -101.5t100 -243.5q0 -143 -101 -243.5t-243 -100.5q-143 0 -244 101t-101 243q0 145 101.5 245t247.5 100zM405 644q-129 0 -218 -90t-89 -220q0 -128 89 -218.5t215 -90.5q125 0 214 91t89 219q0 127 -88.5 218t-211.5 91zM288 532h68q77 0 113 -10
q34 -11 53.5 -37.5t19.5 -63.5q0 -81 -88 -107l117 -182h-54l-113 175h-72v-175h-44v400zM332 344h25q66 0 90 8q48 15 48 70q0 50 -41 64q-23 9 -96 9h-26v-151z" />
    <glyph glyph-name="macron" unicode="&#xaf;" 
d="M116 649h268v-46h-268v46z" />
    <glyph glyph-name="degree" unicode="&#xb0;" 
d="M250 678q57 0 97.5 -39.5t40.5 -94.5t-40.5 -94.5t-97.5 -39.5q-58 0 -98 39.5t-40 96.5q0 54 41 93t97 39zM250 641q-41 0 -70 -28t-29 -68q0 -41 29 -69.5t70 -28.5t70 28.5t29 68.5t-29 68.5t-70 28.5z" />
    <glyph glyph-name="plusminus" unicode="&#xb1;" horiz-adv-x="520" 
d="M279 355h186v-38h-186v-185h-40v185h-185v38h185v192h40v-192zM54 78h411v-40h-411v40z" />
    <glyph glyph-name="twosuperior" unicode="&#xb2;" horiz-adv-x="344" 
d="M101 530h-41q2 125 121 125q50 0 81 -26t31 -68q0 -27 -11.5 -48.5t-52.5 -73.5l-114 -142h185v-37h-241v31l123 153q46 58 56.5 76t10.5 40q0 26 -19 41.5t-51 15.5q-37 0 -56 -21t-22 -66z" />
    <glyph glyph-name="threesuperior" unicode="&#xb3;" horiz-adv-x="344" 
d="M94 546h-40q3 53 33 81t83 28q51 0 82.5 -26.5t31.5 -69.5q0 -57 -53 -86q69 -28 69 -98q0 -54 -36 -87t-95 -33q-57 0 -92 29t-35 77v14h39q1 -83 86 -83q41 0 64.5 21.5t23.5 59.5q0 37 -23.5 57.5t-66.5 20.5q-12 0 -22 -1v39l21 -1q34 0 54.5 18.5t20.5 49.5
q0 29 -18.5 45.5t-51.5 16.5q-35 0 -53 -17.5t-22 -54.5z" />
    <glyph glyph-name="acute" unicode="&#xb4;" 
d="M224 559l96 128h83l-132 -128h-47z" />
    <glyph glyph-name="mu" unicode="&#xb5;" 
d="M55 -165v645h52v-279q0 -57 9.5 -87t34.5 -53q37 -34 94 -34q69 0 111 56q37 48 37 129v268h52v-480h-52v96q-25 -57 -61 -83.5t-89 -26.5q-86 0 -136 79v-230h-52z" />
    <glyph glyph-name="paragraph" unicode="&#xb6;" horiz-adv-x="554" 
d="M219 -100v413h-16q-81 0 -132.5 49t-51.5 126q0 50 23.5 91t64.5 63q47 25 146 25h231v-44h-56v-723h-49v723h-111v-723h-49z" />
    <glyph glyph-name="periodcentered" unicode="&#xb7;" horiz-adv-x="257" 
d="M129 302q21 0 36 -15t15 -37q0 -21 -15 -36t-37 -15q-21 0 -36 15t-15 36q0 22 15 37t37 15z" />
    <glyph glyph-name="cedilla" unicode="&#xb8;" 
d="M236 0h42l-30 -59q84 -10 84 -70q0 -35 -25.5 -56t-68.5 -21q-34 0 -70 13v35q33 -9 51 -9q25 0 39.5 12t14.5 32q0 22 -18 32.5t-60 12.5z" />
    <glyph glyph-name="onesuperior" unicode="&#xb9;" horiz-adv-x="344" 
d="M81 566v31q41 2 59.5 14t24.5 42h32v-393h-42v306h-74z" />
    <glyph glyph-name="ordmasculine" unicode="&#xba;" 
d="M250 675q57 0 92.5 -43t35.5 -113q0 -71 -35.5 -114t-94.5 -43q-56 0 -91.5 43.5t-35.5 113.5q0 69 35.5 112.5t93.5 43.5zM250 640q-40 0 -64 -33t-24 -88t24 -88.5t62 -33.5q40 0 64.5 33t24.5 89q0 54 -24 87.5t-63 33.5zM121 317h257v-35h-257v35z" />
    <glyph glyph-name="guillemotright" unicode="&#xbb;" horiz-adv-x="345" 
d="M70 472h34l84 -233l-84 -239h-34l72 239zM179 472h34l84 -233l-84 -239h-34l73 239z" />
    <glyph glyph-name="onequarter" unicode="&#xbc;" horiz-adv-x="808" 
d="M81 566v31q41 2 59.5 14t24.5 42h32v-393h-42v306h-74zM570 650h49l-382 -650h-48zM705 135h71v-38h-70v-100h-43v100h-168v30l172 266h38v-258zM664 135l1 193l-123 -193h122z" />
    <glyph glyph-name="onehalf" unicode="&#xbd;" horiz-adv-x="808" 
d="M81 566v31q41 2 59.5 14t24.5 42h32v-393h-42v306h-74zM570 650h49l-382 -650h-48zM565 271h-41q2 124 120 124q50 0 81 -26t31 -68q0 -26 -11.5 -48t-52.5 -73l-114 -143h185v-37h-240v31q12 14 39 48l69 88q58 74 69.5 92.5t11.5 41.5q0 26 -19 41.5t-50 15.5
q-74 0 -78 -87z" />
    <glyph glyph-name="threequarters" unicode="&#xbe;" horiz-adv-x="808" 
d="M94 546h-40q3 53 33 81t83 28q51 0 82.5 -26.5t31.5 -69.5q0 -57 -53 -86q69 -28 69 -98q0 -54 -36 -87t-95 -33q-57 0 -92 29t-35 77v14h39q1 -83 86 -83q41 0 64.5 21.5t23.5 59.5q0 37 -23.5 57.5t-66.5 20.5q-12 0 -22 -1v39l21 -1q34 0 54.5 18.5t20.5 49.5
q0 29 -18.5 45.5t-51.5 16.5q-35 0 -53 -17.5t-22 -54.5zM570 650h49l-382 -650h-48zM705 135h71v-38h-70v-100h-43v100h-168v30l172 266h38v-258zM664 135l1 193l-123 -193h122z" />
    <glyph glyph-name="questiondown" unicode="&#xbf;" horiz-adv-x="410" 
d="M230 473q21 0 36 -15t15 -36q0 -22 -15 -37t-37 -15q-21 0 -36 15t-15 37q0 21 15 36t37 15zM202 282h54v-62q1 -63 -10.5 -89t-59.5 -75q-39 -40 -53.5 -65t-14.5 -53q0 -38 24 -60t66 -22q49 0 74.5 24t31.5 76h50q-3 -73 -44.5 -113t-113.5 -40q-68 0 -108 37t-40 101
q0 38 17.5 69t68.5 80q42 40 50 61.5t8 93.5v37z" />
    <glyph glyph-name="Agrave" unicode="&#xc0;" horiz-adv-x="554" 
d="M255 672h44l231 -672h-60l-65 189h-256l-66 -189h-59zM388 239l-111 352l-112 -352h223zM322 730h-58l-154 129h83z" />
    <glyph glyph-name="Aacute" unicode="&#xc1;" horiz-adv-x="554" 
d="M255 672h44l231 -672h-60l-65 189h-256l-66 -189h-59zM388 239l-111 352l-112 -352h223zM232 730l129 129h83l-154 -129h-58z" />
    <glyph glyph-name="Acircumflex" unicode="&#xc2;" horiz-adv-x="554" 
d="M255 672h44l231 -672h-60l-65 189h-256l-66 -189h-59zM388 239l-111 352l-112 -352h223zM113 731l127 128h74l128 -128h-54l-111 92l-111 -92h-53z" />
    <glyph glyph-name="Atilde" unicode="&#xc3;" horiz-adv-x="554" 
d="M255 672h44l231 -672h-60l-65 189h-256l-66 -189h-59zM388 239l-111 352l-112 -352h223zM159 739l-38 17q11 49 32.5 71.5t56.5 22.5q33 0 76 -29q31 -21 42.5 -26.5t25.5 -5.5q40 0 48 64l38 -17q-4 -34 -14 -51q-10 -21 -30.5 -33.5t-43.5 -12.5q-31 0 -86 36
q-35 24 -56 24q-37 0 -51 -60z" />
    <glyph glyph-name="Adieresis" unicode="&#xc4;" horiz-adv-x="554" 
d="M255 672h44l231 -672h-60l-65 189h-256l-66 -189h-59zM388 239l-111 352l-112 -352h223zM190 845q20 0 35 -15t15 -36t-15 -36t-36 -15t-36 15t-15 36q0 22 15 36.5t37 14.5zM366 845q20 0 35 -15t15 -36t-15 -36t-36 -15t-36 15t-15 36q0 22 15 36.5t37 14.5z" />
    <glyph glyph-name="Aring" unicode="&#xc5;" horiz-adv-x="554" 
d="M255 672h44l231 -672h-60l-65 189h-256l-66 -189h-59zM388 239l-111 352l-112 -352h223zM278 893q37 0 63 -26.5t26 -63.5t-26.5 -63.5t-63.5 -26.5t-63.5 26.5t-26.5 63.5q0 38 26.5 64t64.5 26zM278 853q-22 0 -36.5 -14.5t-14.5 -35.5t15 -35.5t35 -14.5
q21 0 35.5 14.5t14.5 35.5q0 20 -14.5 35t-34.5 15z" />
    <glyph glyph-name="AE" unicode="&#xc6;" horiz-adv-x="831" 
d="M400 667h382v-50h-290v-246h267v-50h-267v-271h290v-50h-349v191h-238l-106 -191h-66zM433 241v378l-210 -378h210z" />
    <glyph glyph-name="Ccedilla" unicode="&#xc7;" horiz-adv-x="602" 
d="M330 -11l-25 -59q91 -9 91 -77q0 -38 -27 -60.5t-74 -22.5q-32 0 -71 12v38q31 -9 51 -9q26 0 42 13t16 34q0 23 -18.5 33t-63.5 12l37 88q-81 17 -124 55q-107 93 -107 287q0 157 72.5 251t193.5 94q91 0 148 -48.5t71 -136.5h-56q-32 134 -162 134q-95 0 -150 -79
t-55 -215t54.5 -214.5t149.5 -78.5q75 0 120 46t55 133h56q-8 -106 -69 -168.5t-155 -61.5z" />
    <glyph glyph-name="Egrave" unicode="&#xc8;" horiz-adv-x="490" 
d="M145 370h272v-50h-272v-270h296v-50h-353v667h349v-50h-292v-247zM324 730h-58l-154 129h83z" />
    <glyph glyph-name="Eacute" unicode="&#xc9;" horiz-adv-x="490" 
d="M145 370h272v-50h-272v-270h296v-50h-353v667h349v-50h-292v-247zM201 730l129 129h83l-154 -129h-58z" />
    <glyph glyph-name="Ecircumflex" unicode="&#xca;" horiz-adv-x="490" 
d="M145 370h272v-50h-272v-270h296v-50h-353v667h349v-50h-292v-247zM100 731l127 128h74l128 -128h-54l-111 92l-111 -92h-53z" />
    <glyph glyph-name="Edieresis" unicode="&#xcb;" horiz-adv-x="490" 
d="M145 370h272v-50h-272v-270h296v-50h-353v667h349v-50h-292v-247zM178 845q20 0 35 -15t15 -36t-15 -36t-36 -15t-36 15t-15 36q0 22 15 36.5t37 14.5zM354 845q20 0 35 -15t15 -36t-15 -36t-36 -15t-36 15t-15 36q0 22 15 36.5t37 14.5z" />
    <glyph glyph-name="Igrave" unicode="&#xcc;" horiz-adv-x="232" 
d="M146 0h-59v667h59v-667zM159 730h-55l-127 129h80z" />
    <glyph glyph-name="Iacute" unicode="&#xcd;" horiz-adv-x="232" 
d="M145 0h-59v667h59v-667zM73 730l102 129h80l-127 -129h-55z" />
    <glyph glyph-name="Icircumflex" unicode="&#xce;" horiz-adv-x="232" 
d="M145 0h-59v667h59v-667zM-25 731l104 128h74l104 -128h-50l-91 92l-91 -92h-50z" />
    <glyph glyph-name="Idieresis" unicode="&#xcf;" horiz-adv-x="232" 
d="M145 0h-59v667h59v-667zM50 844q20 0 34.5 -15t14.5 -35q0 -21 -14.5 -35.5t-35.5 -14.5t-35.5 14.5t-14.5 35.5t14.5 35.5t36.5 14.5zM183 844q20 0 34.5 -15t14.5 -35q0 -21 -14.5 -35.5t-35.5 -14.5q-20 0 -35 14.5t-15 35.5t14.5 35.5t36.5 14.5z" />
    <glyph glyph-name="Eth" unicode="&#xd0;" horiz-adv-x="620" 
d="M88 667h85q106 0 152.5 -7.5t89.5 -31.5q69 -39 108.5 -117.5t39.5 -176.5q0 -103 -42.5 -182.5t-118.5 -117.5q-41 -21 -86 -27.5t-147 -6.5h-81v326h-67v47h67v294zM145 50h45h37q75 0 122.5 17t83.5 57q68 74 68 209q0 94 -34 161t-96 98q-34 16 -69.5 20.5
t-125.5 4.5h-31v-244h179v-47h-179v-276z" />
    <glyph glyph-name="Ntilde" unicode="&#xd1;" horiz-adv-x="627" 
d="M88 667h63l336 -584v584h53v-667h-66l-332 582v-582h-54v667zM199 739l-38 17q11 49 32.5 71.5t56.5 22.5q33 0 76 -29q31 -21 42.5 -26.5t25.5 -5.5q40 0 48 64l38 -17q-4 -34 -14 -51q-10 -21 -30.5 -33.5t-43.5 -12.5q-31 0 -86 36q-35 24 -56 24q-37 0 -51 -60z" />
    <glyph glyph-name="Ograve" unicode="&#xd2;" horiz-adv-x="637" 
d="M319 678q115 0 188.5 -96t73.5 -248t-73 -248.5t-188 -96.5q-118 0 -190.5 96.5t-72.5 252.5q0 148 74 244t188 96zM319 627q-87 0 -143.5 -82t-56.5 -208q0 -131 56 -214t144 -83t144 82.5t56 211.5q0 128 -56 210.5t-144 82.5zM385 730h-58l-154 129h83z" />
    <glyph glyph-name="Oacute" unicode="&#xd3;" horiz-adv-x="637" 
d="M319 678q115 0 188.5 -96t73.5 -248t-73 -248.5t-188 -96.5q-118 0 -190.5 96.5t-72.5 252.5q0 148 74 244t188 96zM319 627q-87 0 -143.5 -82t-56.5 -208q0 -131 56 -214t144 -83t144 82.5t56 211.5q0 128 -56 210.5t-144 82.5zM255 730l129 129h83l-154 -129h-58z" />
    <glyph glyph-name="Ocircumflex" unicode="&#xd4;" horiz-adv-x="637" 
d="M319 678q115 0 188.5 -96t73.5 -248t-73 -248.5t-188 -96.5q-118 0 -190.5 96.5t-72.5 252.5q0 148 74 244t188 96zM319 627q-87 0 -143.5 -82t-56.5 -208q0 -131 56 -214t144 -83t144 82.5t56 211.5q0 128 -56 210.5t-144 82.5zM155 731l127 128h74l128 -128h-54
l-111 92l-111 -92h-53z" />
    <glyph glyph-name="Otilde" unicode="&#xd5;" horiz-adv-x="637" 
d="M319 678q115 0 188.5 -96t73.5 -248t-73 -248.5t-188 -96.5q-118 0 -190.5 96.5t-72.5 252.5q0 148 74 244t188 96zM319 627q-87 0 -143.5 -82t-56.5 -208q0 -131 56 -214t144 -83t144 82.5t56 211.5q0 128 -56 210.5t-144 82.5zM204 739l-38 17q11 49 32.5 71.5
t56.5 22.5q33 0 76 -29q31 -21 42.5 -26.5t25.5 -5.5q40 0 48 64l38 -17q-4 -34 -14 -51q-10 -21 -30.5 -33.5t-43.5 -12.5q-31 0 -86 36q-35 24 -56 24q-37 0 -51 -60z" />
    <glyph glyph-name="Odieresis" unicode="&#xd6;" horiz-adv-x="637" 
d="M319 678q115 0 188.5 -96t73.5 -248t-73 -248.5t-188 -96.5q-118 0 -190.5 96.5t-72.5 252.5q0 148 74 244t188 96zM319 627q-87 0 -143.5 -82t-56.5 -208q0 -131 56 -214t144 -83t144 82.5t56 211.5q0 128 -56 210.5t-144 82.5zM232 845q20 0 35 -15t15 -36t-15 -36
t-36 -15t-36 15t-15 36q0 22 15 36.5t37 14.5zM408 845q20 0 35 -15t15 -36t-15 -36t-36 -15t-36 15t-15 36q0 22 15 36.5t37 14.5z" />
    <glyph glyph-name="multiply" unicode="&#xd7;" horiz-adv-x="520" 
d="M289 337l143 -144l-29 -28l-143 143l-143 -143l-28 28l143 143l-143 143l29 29l143 -144l143 143l27 -28z" />
    <glyph glyph-name="Oslash" unicode="&#xd8;" horiz-adv-x="637" 
d="M482 615l35 52h49l-55 -83q70 -95 70 -241q0 -157 -74 -255.5t-192 -98.5q-92 0 -160 63l-35 -52h-49l56 83q-70 98 -70 240q0 157 74 256t192 99q89 0 159 -63zM161 135l290 434q-53 58 -128 58q-91 0 -147.5 -84.5t-56.5 -221.5q0 -106 42 -186zM476 532l-290 -433
q53 -59 129 -59q91 0 147.5 85t56.5 222q0 108 -43 185z" />
    <glyph glyph-name="Ugrave" unicode="&#xd9;" horiz-adv-x="608" 
d="M78 667h57v-396q1 -92 5.5 -120.5t22.5 -52.5q43 -58 141 -58q56 0 97.5 21t57.5 58q10 21 12 46t3 106v396h57v-397v-49q0 -96 -31 -143q-58 -89 -196 -89q-73 0 -126.5 27.5t-78.5 78.5q-21 42 -21 126v49v397zM368 730h-58l-154 129h83z" />
    <glyph glyph-name="Uacute" unicode="&#xda;" horiz-adv-x="608" 
d="M78 667h57v-396q1 -92 5.5 -120.5t22.5 -52.5q43 -58 141 -58q56 0 97.5 21t57.5 58q10 21 12 46t3 106v396h57v-397v-49q0 -96 -31 -143q-58 -89 -196 -89q-73 0 -126.5 27.5t-78.5 78.5q-21 42 -21 126v49v397zM240 730l129 129h83l-154 -129h-58z" />
    <glyph glyph-name="Ucircumflex" unicode="&#xdb;" horiz-adv-x="608" 
d="M78 667h57v-396q1 -92 5.5 -120.5t22.5 -52.5q43 -58 141 -58q56 0 97.5 21t57.5 58q10 21 12 46t3 106v396h57v-397v-49q0 -96 -31 -143q-58 -89 -196 -89q-73 0 -126.5 27.5t-78.5 78.5q-21 42 -21 126v49v397zM140 731l127 128h74l128 -128h-54l-111 92l-111 -92h-53z
" />
    <glyph glyph-name="Udieresis" unicode="&#xdc;" horiz-adv-x="608" 
d="M78 667h57v-396q1 -92 5.5 -120.5t22.5 -52.5q43 -58 141 -58q56 0 97.5 21t57.5 58q10 21 12 46t3 106v396h57v-397v-49q0 -96 -31 -143q-58 -89 -196 -89q-73 0 -126.5 27.5t-78.5 78.5q-21 42 -21 126v49v397zM217 845q20 0 35 -15t15 -36t-15 -36t-36 -15t-36 15
t-15 36q0 22 15 36.5t37 14.5zM393 845q20 0 35 -15t15 -36t-15 -36t-36 -15t-36 15t-15 36q0 22 15 36.5t37 14.5z" />
    <glyph glyph-name="Yacute" unicode="&#xdd;" horiz-adv-x="495" 
d="M16 667h67l166 -327l164 327h67l-205 -381l1 -286h-56l1 286zM184 730l129 129h83l-154 -129h-58z" />
    <glyph glyph-name="Thorn" unicode="&#xde;" horiz-adv-x="513" 
d="M88 667h57v-78h38q130 0 182 -17q54 -18 85 -66t31 -113q0 -58 -25 -102t-70 -65q-32 -14 -70 -19t-119 -5h-52v-202h-57v667zM145 252h50q87 0 126 9q98 20 98 133q0 47 -20 81.5t-56 47.5q-26 10 -55 13t-107 3h-36v-287z" />
    <glyph glyph-name="germandbls" unicode="&#xdf;" horiz-adv-x="493" 
d="M72 0v427q0 81 4 113t18 58q19 35 56.5 55t86.5 20q73 0 118.5 -43t45.5 -113q0 -107 -120 -140q80 -13 121.5 -61t41.5 -127q0 -85 -48 -140.5t-122 -55.5q-33 0 -72 16v49q36 -18 72 -18q51 0 83 41.5t32 107.5q0 80 -52 122t-153 44v45q9 -1 21 -1q68 0 105 30t37 85
q0 51 -30 81.5t-81 30.5q-74 0 -98 -56q-9 -24 -11.5 -47.5t-2.5 -95.5v-427h-52z" />
    <glyph glyph-name="agrave" unicode="&#xe0;" horiz-adv-x="463" 
d="M119 355h-54q7 64 50 97.5t118 33.5q56 0 95.5 -21.5t51.5 -58.5q9 -28 9 -102v-173v-38q0 -56 12 -93h-52q-8 28 -12 67q-43 -79 -140 -79q-67 0 -107.5 37.5t-40.5 98.5q0 77 64.5 118.5t223.5 65.5v25q0 58 -24 82t-81 24q-98 0 -113 -84zM337 213v54
q-130 -25 -181.5 -57t-51.5 -85q0 -40 27 -65t71 -25q79 0 114 63q21 38 21 115zM291 559h-47l-132 128h83z" />
    <glyph glyph-name="aacute" unicode="&#xe1;" horiz-adv-x="463" 
d="M119 355h-54q7 64 50 97.5t118 33.5q56 0 95.5 -21.5t51.5 -58.5q9 -28 9 -102v-173v-38q0 -56 12 -93h-52q-8 28 -12 67q-43 -79 -140 -79q-67 0 -107.5 37.5t-40.5 98.5q0 77 64.5 118.5t223.5 65.5v25q0 58 -24 82t-81 24q-98 0 -113 -84zM337 213v54
q-130 -25 -181.5 -57t-51.5 -85q0 -40 27 -65t71 -25q79 0 114 63q21 38 21 115zM181 559l96 128h83l-132 -128h-47z" />
    <glyph glyph-name="acircumflex" unicode="&#xe2;" horiz-adv-x="463" 
d="M119 355h-54q7 64 50 97.5t118 33.5q56 0 95.5 -21.5t51.5 -58.5q9 -28 9 -102v-173v-38q0 -56 12 -93h-52q-8 28 -12 67q-43 -79 -140 -79q-67 0 -107.5 37.5t-40.5 98.5q0 77 64.5 118.5t223.5 65.5v25q0 58 -24 82t-81 24q-98 0 -113 -84zM337 213v54
q-130 -25 -181.5 -57t-51.5 -85q0 -40 27 -65t71 -25q79 0 114 63q21 38 21 115zM89 559l111 136h74l110 -136h-53l-94 97l-95 -97h-53z" />
    <glyph glyph-name="atilde" unicode="&#xe3;" horiz-adv-x="463" 
d="M119 355h-54q7 64 50 97.5t118 33.5q56 0 95.5 -21.5t51.5 -58.5q9 -28 9 -102v-173v-38q0 -56 12 -93h-52q-8 28 -12 67q-43 -79 -140 -79q-67 0 -107.5 37.5t-40.5 98.5q0 77 64.5 118.5t223.5 65.5v25q0 58 -24 82t-81 24q-98 0 -113 -84zM337 213v54
q-130 -25 -181.5 -57t-51.5 -85q0 -40 27 -65t71 -25q79 0 114 63q21 38 21 115zM124 568l-37 8q17 103 83 103q29 0 68 -29q44 -32 61 -32q36 0 44 64l39 -9q-5 -49 -27 -77.5t-54 -28.5t-74 32q-40 30 -58 30q-33 0 -45 -61z" />
    <glyph glyph-name="adieresis" unicode="&#xe4;" horiz-adv-x="463" 
d="M119 355h-54q7 64 50 97.5t118 33.5q56 0 95.5 -21.5t51.5 -58.5q9 -28 9 -102v-173v-38q0 -56 12 -93h-52q-8 28 -12 67q-43 -79 -140 -79q-67 0 -107.5 37.5t-40.5 98.5q0 77 64.5 118.5t223.5 65.5v25q0 58 -24 82t-81 24q-98 0 -113 -84zM337 213v54
q-130 -25 -181.5 -57t-51.5 -85q0 -40 27 -65t71 -25q79 0 114 63q21 38 21 115zM150 673q20 0 33.5 -14t13.5 -34q0 -19 -13.5 -33t-33.5 -14t-34 13.5t-14 33.5t14 34t34 14zM320 673q20 0 33.5 -14t13.5 -34q0 -19 -13.5 -33t-33.5 -14t-34 13.5t-14 33.5t14 34t34 14z
" />
    <glyph glyph-name="aring" unicode="&#xe5;" horiz-adv-x="463" 
d="M119 355h-54q7 64 50 97.5t118 33.5q56 0 95.5 -21.5t51.5 -58.5q9 -28 9 -102v-173v-38q0 -56 12 -93h-52q-8 28 -12 67q-43 -79 -140 -79q-67 0 -107.5 37.5t-40.5 98.5q0 77 64.5 118.5t223.5 65.5v25q0 58 -24 82t-81 24q-98 0 -113 -84zM337 213v54
q-130 -25 -181.5 -57t-51.5 -85q0 -40 27 -65t71 -25q79 0 114 63q21 38 21 115zM236 723q37 0 63 -26.5t26 -63.5t-26.5 -63.5t-63.5 -26.5t-63.5 26.5t-26.5 63.5q0 38 26.5 64t64.5 26zM236 683q-22 0 -36.5 -14.5t-14.5 -35.5t14.5 -35.5t35.5 -14.5t35.5 14.5
t14.5 35.5q0 20 -14.5 35t-34.5 15z" />
    <glyph glyph-name="ae" unicode="&#xe6;" horiz-adv-x="755" 
d="M706 233h-321q1 -91 32 -137q41 -61 115 -61q79 0 117 78l50 -9q-17 -54 -61.5 -85t-105.5 -31q-58 0 -102.5 27t-67.5 77q-31 -55 -70 -79.5t-95 -24.5q-65 0 -106.5 35.5t-41.5 91.5q0 75 71.5 118t195.5 43h14v33q0 73 -16 96q-23 34 -82 34q-95 0 -120 -88h-49
q10 64 55 99.5t114 35.5q123 0 144 -89q50 89 148 89q83 0 133 -64t50 -172q0 -10 -1 -17zM387 276h259q-1 76 -34.5 119.5t-89.5 43.5q-54 0 -90.5 -44t-44.5 -119zM330 192v41q-111 1 -169 -29t-58 -88q0 -37 26.5 -59t70.5 -22q77 0 112 64q18 33 18 93z" />
    <glyph glyph-name="ccedilla" unicode="&#xe7;" horiz-adv-x="467" 
d="M257 -12l-20 -47q84 -10 84 -70q0 -35 -25.5 -56t-68.5 -21q-35 0 -70 14v34q35 -9 51 -9q25 0 39.5 12t14.5 33q0 22 -17.5 32t-60.5 13l34 67q-169 33 -169 245q0 113 54 182t143 69q72 0 115.5 -43.5t51.5 -122.5h-52q-19 119 -117 119q-64 0 -102.5 -56t-38.5 -148
q0 -91 39.5 -145.5t104.5 -54.5q49 0 80 33t37 92h54q-8 -80 -49 -124t-112 -48z" />
    <glyph glyph-name="egrave" unicode="&#xe8;" horiz-adv-x="476" 
d="M427 231h-323q2 -96 39 -146t105 -50q41 0 67.5 18t48.5 60l51 -9q-44 -116 -167 -116q-92 0 -145.5 65t-53.5 178q0 116 53 185.5t141 69.5q84 0 134 -64.5t50 -172.5v-18zM105 274h266q-5 78 -39 121.5t-91 43.5q-56 0 -91.5 -43t-44.5 -122zM301 559h-47l-132 128h83z
" />
    <glyph glyph-name="eacute" unicode="&#xe9;" horiz-adv-x="476" 
d="M427 231h-323q2 -96 39 -146t105 -50q41 0 67.5 18t48.5 60l51 -9q-44 -116 -167 -116q-92 0 -145.5 65t-53.5 178q0 116 53 185.5t141 69.5q84 0 134 -64.5t50 -172.5v-18zM105 274h266q-5 78 -39 121.5t-91 43.5q-56 0 -91.5 -43t-44.5 -122zM192 559l96 128h83
l-132 -128h-47z" />
    <glyph glyph-name="ecircumflex" unicode="&#xea;" horiz-adv-x="476" 
d="M427 231h-323q2 -96 39 -146t105 -50q41 0 67.5 18t48.5 60l51 -9q-44 -116 -167 -116q-92 0 -145.5 65t-53.5 178q0 116 53 185.5t141 69.5q84 0 134 -64.5t50 -172.5v-18zM105 274h266q-5 78 -39 121.5t-91 43.5q-56 0 -91.5 -43t-44.5 -122zM100 559l111 136h74
l110 -136h-53l-94 97l-95 -97h-53z" />
    <glyph glyph-name="edieresis" unicode="&#xeb;" horiz-adv-x="476" 
d="M427 231h-323q2 -96 39 -146t105 -50q41 0 67.5 18t48.5 60l51 -9q-44 -116 -167 -116q-92 0 -145.5 65t-53.5 178q0 116 53 185.5t141 69.5q84 0 134 -64.5t50 -172.5v-18zM105 274h266q-5 78 -39 121.5t-91 43.5q-56 0 -91.5 -43t-44.5 -122zM164 673q20 0 33.5 -14
t13.5 -34q0 -19 -13.5 -33t-33.5 -14t-34 13.5t-14 33.5t14 34t34 14zM334 673q20 0 33.5 -14t13.5 -34q0 -19 -13.5 -33t-33.5 -14t-34 13.5t-14 33.5t14 34t34 14z" />
    <glyph glyph-name="igrave" unicode="&#xec;" horiz-adv-x="207" 
d="M75 473h57v-473h-57v473zM140 559h-44l-108 128h80z" />
    <glyph glyph-name="iacute" unicode="&#xed;" horiz-adv-x="207" 
d="M75 473h57v-473h-57v473zM67 559l72 128h80l-108 -128h-44z" />
    <glyph glyph-name="icircumflex" unicode="&#xee;" horiz-adv-x="207" 
d="M75 473h57v-473h-57v473zM-21 559l87 136h74l88 -136h-50l-75 97l-74 -97h-50z" />
    <glyph glyph-name="idieresis" unicode="&#xef;" horiz-adv-x="207" 
d="M75 473h57v-473h-57v473zM41 673q19 0 32.5 -14t13.5 -33q0 -20 -13.5 -33.5t-33.5 -13.5t-33.5 13.5t-13.5 33.5t14 33.5t34 13.5zM169 673q19 0 32.5 -14t13.5 -33q0 -20 -13.5 -33.5t-33.5 -13.5t-33.5 13.5t-13.5 33.5t14 33.5t34 13.5z" />
    <glyph glyph-name="eth" unicode="&#xf0;" horiz-adv-x="493" 
d="M253 616l75 44l21 -37l-71 -40l85 -110q44 -57 63 -110t19 -120q0 -115 -54 -185t-143 -70t-144 68.5t-55 178.5t54.5 180.5t139.5 70.5q25 0 53 -11l-62 83l-74 -44l-23 37l75 42l-42 58l35 20zM253 439q-70 0 -110 -54.5t-40 -148.5q0 -91 40 -146t105 -55
q64 0 103.5 55.5t39.5 144.5q0 103 -49 163q-33 41 -89 41z" />
    <glyph glyph-name="ntilde" unicode="&#xf1;" horiz-adv-x="491" 
d="M64 473h51q9 -28 9 -71q48 84 145 84q51 0 87.5 -21t49.5 -59q8 -23 10 -44t2 -91v-271h-52v275q0 57 -2.5 78.5t-11.5 39.5q-23 46 -87 46q-74 0 -113 -61q-25 -40 -25 -106v-272h-52v315q0 85 -1.5 105t-9.5 53zM125 568l-37 8q17 103 83 103q29 0 68 -29
q44 -32 61 -32q36 0 44 64l39 -9q-5 -49 -27 -77.5t-54 -28.5t-74 32q-40 30 -58 30q-33 0 -45 -61z" />
    <glyph glyph-name="ograve" unicode="&#xf2;" horiz-adv-x="493" 
d="M247 486q89 0 143.5 -69t54.5 -181q0 -111 -54.5 -179.5t-143.5 -68.5q-90 0 -144 69t-54 183q0 109 55 177.5t143 68.5zM247 439q-64 0 -104 -55.5t-40 -144.5q0 -93 39.5 -148.5t104.5 -55.5q64 0 104 55.5t40 145.5q0 91 -40 147t-104 56zM299 559h-47l-132 128h83z
" />
    <glyph glyph-name="oacute" unicode="&#xf3;" horiz-adv-x="493" 
d="M247 486q89 0 143.5 -69t54.5 -181q0 -111 -54.5 -179.5t-143.5 -68.5q-90 0 -144 69t-54 183q0 109 55 177.5t143 68.5zM247 439q-64 0 -104 -55.5t-40 -144.5q0 -93 39.5 -148.5t104.5 -55.5q64 0 104 55.5t40 145.5q0 91 -40 147t-104 56zM197 559l96 128h83
l-132 -128h-47z" />
    <glyph glyph-name="ocircumflex" unicode="&#xf4;" horiz-adv-x="493" 
d="M247 486q89 0 143.5 -69t54.5 -181q0 -111 -54.5 -179.5t-143.5 -68.5q-90 0 -144 69t-54 183q0 109 55 177.5t143 68.5zM247 439q-64 0 -104 -55.5t-40 -144.5q0 -93 39.5 -148.5t104.5 -55.5q64 0 104 55.5t40 145.5q0 91 -40 147t-104 56zM99 559l111 136h74l110 -136
h-53l-94 97l-95 -97h-53z" />
    <glyph glyph-name="otilde" unicode="&#xf5;" horiz-adv-x="493" 
d="M247 486q89 0 143.5 -69t54.5 -181q0 -111 -54.5 -179.5t-143.5 -68.5q-90 0 -144 69t-54 183q0 109 55 177.5t143 68.5zM247 439q-64 0 -104 -55.5t-40 -144.5q0 -93 39.5 -148.5t104.5 -55.5q64 0 104 55.5t40 145.5q0 91 -40 147t-104 56zM144 568l-37 8
q17 103 83 103q29 0 68 -29q44 -32 61 -32q36 0 44 64l39 -9q-5 -49 -27 -77.5t-54 -28.5t-74 32q-40 30 -58 30q-33 0 -45 -61z" />
    <glyph glyph-name="odieresis" unicode="&#xf6;" horiz-adv-x="493" 
d="M247 486q89 0 143.5 -69t54.5 -181q0 -111 -54.5 -179.5t-143.5 -68.5q-90 0 -144 69t-54 183q0 109 55 177.5t143 68.5zM247 439q-64 0 -104 -55.5t-40 -144.5q0 -93 39.5 -148.5t104.5 -55.5q64 0 104 55.5t40 145.5q0 91 -40 147t-104 56zM162 673q20 0 33.5 -14
t13.5 -34q0 -19 -13.5 -33t-33.5 -14t-34 13.5t-14 33.5t14 34t34 14zM332 673q20 0 33.5 -14t13.5 -34q0 -19 -13.5 -33t-33.5 -14t-34 13.5t-14 33.5t14 34t34 14z" />
    <glyph glyph-name="divide" unicode="&#xf7;" horiz-adv-x="520" 
d="M260 243q17 0 29 -12.5t12 -29.5t-12.5 -29t-29.5 -12t-29 12t-12 29t12.5 29.5t29.5 12.5zM260 507q17 0 29 -12.5t12 -29.5t-12.5 -29t-29.5 -12t-29 12t-12 29q0 18 12 30t30 12zM54 356h411v-40h-411v40z" />
    <glyph glyph-name="oslash" unicode="&#xf8;" horiz-adv-x="493" 
d="M39 0l54 68q-44 70 -44 163q0 112 55.5 183.5t143.5 71.5q77 0 131 -54l31 40h44l-53 -68q44 -67 44 -162q0 -113 -56 -183.5t-145 -70.5q-75 0 -128 51l-30 -39h-47zM127 112l220 279q-41 48 -98 48q-65 0 -105.5 -58.5t-40.5 -153.5q0 -64 24 -115zM367 360l-219 -281
q36 -44 96 -44q66 0 106.5 57.5t40.5 151.5q0 67 -24 116z" />
    <glyph glyph-name="ugrave" unicode="&#xf9;" horiz-adv-x="478" 
d="M73 473h52v-295q0 -77 18 -104q27 -39 85 -39q68 0 103 59q21 35 21 107v272h52v-330q0 -81 1.5 -100t9.5 -43h-53q-10 31 -10 67q-20 -42 -49.5 -60.5t-75.5 -18.5q-98 0 -138 76q-16 31 -16 116v293zM293 559h-47l-132 128h83z" />
    <glyph glyph-name="uacute" unicode="&#xfa;" horiz-adv-x="478" 
d="M73 473h52v-295q0 -77 18 -104q27 -39 85 -39q68 0 103 59q21 35 21 107v272h52v-330q0 -81 1.5 -100t9.5 -43h-53q-10 31 -10 67q-20 -42 -49.5 -60.5t-75.5 -18.5q-98 0 -138 76q-16 31 -16 116v293zM184 559l96 128h83l-132 -128h-47z" />
    <glyph glyph-name="ucircumflex" unicode="&#xfb;" horiz-adv-x="478" 
d="M73 473h52v-295q0 -77 18 -104q27 -39 85 -39q68 0 103 59q21 35 21 107v272h52v-330q0 -81 1.5 -100t9.5 -43h-53q-10 31 -10 67q-20 -42 -49.5 -60.5t-75.5 -18.5q-98 0 -138 76q-16 31 -16 116v293zM92 559l111 136h74l110 -136h-53l-94 97l-95 -97h-53z" />
    <glyph glyph-name="udieresis" unicode="&#xfc;" horiz-adv-x="478" 
d="M73 473h52v-295q0 -77 18 -104q27 -39 85 -39q68 0 103 59q21 35 21 107v272h52v-330q0 -81 1.5 -100t9.5 -43h-53q-10 31 -10 67q-20 -42 -49.5 -60.5t-75.5 -18.5q-98 0 -138 76q-16 31 -16 116v293zM154 673q20 0 33.5 -14t13.5 -34q0 -19 -13.5 -33t-33.5 -14
t-34 13.5t-14 33.5t14 34t34 14zM324 673q20 0 33.5 -14t13.5 -34q0 -19 -13.5 -33t-33.5 -14t-34 13.5t-14 33.5t14 34t34 14z" />
    <glyph glyph-name="yacute" unicode="&#xfd;" horiz-adv-x="417" 
d="M16 473h56l136 -405l141 405h55l-154 -433q-32 -91 -45 -121t-31 -55q-46 -63 -131 -63h-17v47q64 -1 92 27.5t61 125.5zM157 559l96 128h83l-132 -128h-47z" />
    <glyph glyph-name="thorn" unicode="&#xfe;" horiz-adv-x="494" 
d="M75 -197v866h52v-270q27 48 58 68t77 20q83 0 133.5 -69.5t50.5 -183.5q0 -112 -48.5 -179t-130.5 -67q-89 0 -140 82v-267h-52zM262 440q-62 0 -99 -55.5t-37 -147.5q0 -90 38 -146t99 -56t95 52.5t34 145.5q0 94 -35.5 150.5t-94.5 56.5z" />
    <glyph glyph-name="ydieresis" unicode="&#xff;" horiz-adv-x="417" 
d="M16 473h56l136 -405l141 405h55l-154 -433q-32 -91 -45 -121t-31 -55q-46 -63 -131 -63h-17v47q64 -1 92 27.5t61 125.5zM126 673q20 0 33.5 -14t13.5 -34q0 -19 -13.5 -33t-33.5 -14t-34 13.5t-14 33.5t14 34t34 14zM296 673q20 0 33.5 -14t13.5 -34q0 -19 -13.5 -33
t-33.5 -14t-34 13.5t-14 33.5t14 34t34 14z" />
    <glyph glyph-name="dotlessi" unicode="&#x131;" horiz-adv-x="207" 
d="M75 473h57v-473h-57v473z" />
    <glyph glyph-name="Lslash" unicode="&#x141;" horiz-adv-x="462" 
d="M88 339v328h59v-296l147 109v-57l-147 -109v-264h284v-50h-343v282l-67 -50v57z" />
    <glyph glyph-name="lslash" unicode="&#x142;" horiz-adv-x="207" 
d="M75 363v306h57v-278l72 53v-51l-72 -53v-340h-57v312l-73 -53v51z" />
    <glyph glyph-name="OE" unicode="&#x152;" horiz-adv-x="918" 
d="M521 570v97h344v-50h-288v-247h269v-50h-268v-270h292v-50h-349v98q-74 -109 -195 -109q-122 0 -195.5 93.5t-73.5 248.5q0 158 73.5 252.5t195.5 94.5q61 0 107.5 -26t87.5 -82zM320 627q-91 0 -146 -79.5t-55 -210.5q0 -137 55 -217t149 -80q90 0 143.5 79.5
t53.5 213.5q0 135 -54 214.5t-146 79.5z" />
    <glyph glyph-name="oe" unicode="&#x153;" horiz-adv-x="812" 
d="M762 226h-319q3 -93 40 -142t104 -49q85 0 118 79l50 -9q-46 -117 -168 -117q-119 0 -175 113q-58 -113 -165 -113q-89 0 -143.5 68.5t-54.5 179.5q0 112 55.5 181t144.5 69q110 0 164 -116q53 116 167 116q82 0 133 -63.5t51 -164.5q0 -4 -2 -32zM443 269h260
q-1 79 -34.5 124.5t-91.5 45.5q-56 0 -91 -44.5t-43 -125.5zM248 439q-65 0 -104.5 -55.5t-39.5 -147.5q0 -90 39 -145.5t103 -55.5q62 0 100 55.5t38 146.5q0 90 -37.5 146t-98.5 56z" />
    <glyph glyph-name="Scaron" unicode="&#x160;" horiz-adv-x="541" 
d="M459 502h-56q-6 61 -41 93t-95 32q-56 0 -93 -31.5t-37 -79.5q0 -47 42 -78q22 -16 121 -62q113 -52 143 -93q36 -45 36 -109q0 -82 -58.5 -133.5t-151.5 -51.5q-114 0 -170 73q-38 49 -42 133h57q4 -74 44.5 -114.5t112.5 -40.5q65 0 106.5 36.5t41.5 93.5q0 52 -38 88
q-25 24 -100 58q-113 53 -139 72q-63 49 -63 124q0 72 54 119t138 47q85 0 134 -46.5t54 -129.5zM436 859l-128 -128h-74l-127 128h53l111 -92l111 92h54z" />
    <glyph glyph-name="scaron" unicode="&#x161;" horiz-adv-x="423" 
d="M369 347h-51q-10 92 -104 92q-44 0 -71.5 -22t-27.5 -57q0 -31 22 -48t87 -37q102 -30 128 -60q27 -30 27 -82q0 -67 -44.5 -106t-119.5 -39q-82 0 -125.5 40t-43.5 114h51q11 -107 118 -107q49 0 79 25.5t30 66.5q0 42 -31 63q-15 11 -107 39q-68 21 -96.5 50.5
t-28.5 78.5q0 57 43 92.5t111 35.5q72 0 111.5 -35.5t42.5 -103.5zM365 695l-110 -136h-74l-111 136h53l95 -97l94 97h53z" />
    <glyph glyph-name="Ydieresis" unicode="&#x178;" horiz-adv-x="495" 
d="M16 667h67l166 -327l164 327h67l-205 -381l1 -286h-56l1 286zM161 845q20 0 35 -15t15 -36t-15 -36t-36 -15t-36 15t-15 36q0 22 15 36.5t37 14.5zM337 845q20 0 35 -15t15 -36t-15 -36t-36 -15t-36 15t-15 36q0 22 15 36.5t37 14.5z" />
    <glyph glyph-name="Zcaron" unicode="&#x17d;" horiz-adv-x="490" 
d="M52 667h403v-39l-355 -578h349v-50h-416v44l351 573h-332v50zM417 859l-128 -128h-74l-127 128h53l111 -92l111 92h54z" />
    <glyph glyph-name="zcaron" unicode="&#x17e;" horiz-adv-x="389" 
d="M41 473h330v-37l-288 -393h280v-43h-341v41l284 389h-265v43zM354 695l-110 -136h-74l-111 136h53l95 -97l94 97h53z" />
    <glyph glyph-name="florin" unicode="&#x192;" horiz-adv-x="520" 
d="M335 472h100v-49h-108l-66 -372q-20 -114 -40 -146q-32 -50 -98 -50q-41 0 -105 29l11 54q49 -33 90 -33q25 0 40 11.5t25 38.5q9 29 22 106l64 362h-93v49h102l13 76q16 88 40 120q35 46 95 46q33 0 75 -16l-10 -52q-42 20 -68 20q-40 0 -58 -51q-10 -24 -20 -82z" />
    <glyph glyph-name="circumflex" unicode="&#x2c6;" 
d="M102 559l111 136h74l110 -136h-53l-94 97l-95 -97h-53z" />
    <glyph glyph-name="caron" unicode="&#x2c7;" 
d="M397 695l-110 -136h-74l-111 136h53l95 -97l94 97h53z" />
    <glyph glyph-name="breve" unicode="&#x2d8;" 
d="M131 688h38q8 -38 29.5 -59.5t52.5 -21.5q30 0 51.5 21.5t28.5 59.5h38q-6 -62 -37 -97t-80 -35q-50 0 -83 36t-38 96z" />
    <glyph glyph-name="dotaccent" unicode="&#x2d9;" 
d="M250 673q20 0 33.5 -14t13.5 -34q0 -19 -13.5 -33t-33.5 -14t-34 13.5t-14 33.5t14 34t34 14z" />
    <glyph glyph-name="ring" unicode="&#x2da;" 
d="M251 723q37 0 63 -26.5t26 -63.5t-26 -63.5t-64 -26.5q-37 0 -63.5 26.5t-26.5 63.5q0 38 26.5 64t64.5 26zM251 683q-22 0 -36.5 -14.5t-14.5 -35.5t14.5 -35.5t35.5 -14.5t35.5 14.5t14.5 35.5q0 20 -14.5 35t-34.5 15z" />
    <glyph glyph-name="ogonek" unicode="&#x2db;" 
d="M278 0h65q-95 -36 -95 -83q0 -20 16 -33t41 -13q21 0 39 7v-42q-28 -9 -55 -9q-43 0 -70 23t-27 58q0 31 23 56t63 36z" />
    <glyph glyph-name="tilde" unicode="&#x2dc;" 
d="M140 568l-37 8q17 103 83 103q29 0 68 -29q44 -32 61 -32q36 0 44 64l39 -9q-5 -49 -27 -77.5t-54 -28.5t-74 32q-40 30 -58 30q-33 0 -45 -61z" />
    <glyph glyph-name="hungarumlaut" unicode="&#x2dd;" 
d="M176 558l85 128h66l-101 -128h-50zM279 558l85 128h66l-101 -128h-50z" />
    <glyph glyph-name="Delta" unicode="&#x394;" horiz-adv-x="667" 
d="M32 0l274 667h54l275 -667h-603zM106 48h454l-227 556z" />
    <glyph glyph-name="Omega" unicode="&#x3a9;" horiz-adv-x="667" 
d="M28 0v47h195q-195 112 -195 315q0 136 88 228.5t217 92.5t217 -92.5t88 -228.5q0 -204 -195 -315h195v-47h-258v43q79 45 120 92q85 94 85 222q0 116 -73 197.5t-178 81.5q-108 0 -180.5 -80t-72.5 -199q0 -197 205 -314v-43h-258z" />
    <glyph glyph-name="pi" unicode="&#x3c0;" horiz-adv-x="549" 
d="M97 0v432h-73v47h500v-47h-72v-432h-52v432h-251v-432h-52z" />
    <glyph glyph-name="endash" unicode="&#x2013;" 
d="M78 273h343v-43h-343v43z" />
    <glyph glyph-name="emdash" unicode="&#x2014;" horiz-adv-x="556" 
d="M0 273h556v-43h-556v43z" />
    <glyph glyph-name="quoteleft" unicode="&#x2018;" horiz-adv-x="234" 
d="M133 678h63q-70 -64 -78 -118q4 1 9 1q19 0 33.5 -15t14.5 -35q0 -22 -16 -37.5t-39 -15.5q-26 0 -42 18.5t-16 49.5q0 70 71 152z" />
    <glyph glyph-name="quoteright" unicode="&#x2019;" horiz-adv-x="234" 
d="M101 458h-63q70 63 78 117h-10q-19 0 -33 15t-14 35q0 22 16 37.5t39 15.5q26 0 42 -18.5t16 -49.5q0 -72 -71 -152z" />
    <glyph glyph-name="quotesinglbase" unicode="&#x201a;" horiz-adv-x="234" 
d="M101 -119h-63q70 65 78 117h-9q-19 0 -33.5 15t-14.5 35q0 22 16 37.5t39 15.5q26 0 42 -18.5t16 -48.5q0 -70 -71 -153z" />
    <glyph glyph-name="quotedblleft" unicode="&#x201c;" horiz-adv-x="384" 
d="M283 678h63q-70 -64 -78 -118q4 1 9 1q19 0 33.5 -15t14.5 -35q0 -22 -16 -37.5t-39 -15.5q-26 0 -42 18.5t-16 49.5q0 70 71 152zM133 678h63q-70 -64 -78 -118q4 1 9 1q19 0 33.5 -15t14.5 -35q0 -22 -16 -37.5t-39 -15.5q-26 0 -42 18.5t-16 49.5q0 70 71 152z" />
    <glyph glyph-name="quotedblright" unicode="&#x201d;" horiz-adv-x="398" 
d="M101 458h-63q70 63 78 117h-10q-19 0 -33 15t-14 35q0 22 16 37.5t39 15.5q26 0 42 -18.5t16 -49.5q0 -72 -71 -152zM264 458h-63q70 63 78 117h-9q-19 0 -33.5 15t-14.5 35q0 22 16 37.5t39 15.5q26 0 42 -18.5t16 -49.5q0 -72 -71 -152z" />
    <glyph glyph-name="quotedblbase" unicode="&#x201e;" horiz-adv-x="398" 
d="M101 -119h-63q70 65 78 117h-9q-19 0 -33.5 15t-14.5 35q0 22 16 37.5t39 15.5q26 0 42 -18.5t16 -48.5q0 -70 -71 -153zM264 -119h-63q70 64 78 117h-9q-19 0 -33.5 15t-14.5 35q0 22 16 37.5t39 15.5q26 0 42 -18.5t16 -48.5q0 -70 -71 -153z" />
    <glyph glyph-name="dagger" unicode="&#x2020;" 
d="M226 650h52v-178h190v-46h-190v-559h-52v559h-193v46h193v178z" />
    <glyph glyph-name="daggerdbl" unicode="&#x2021;" 
d="M226 650h49v-119h193v-47h-193v-435h193v-47h-193v-135h-49v135h-193v47h193v435h-193v47h193v119z" />
    <glyph glyph-name="bullet" unicode="&#x2022;" horiz-adv-x="667" 
d="M337 477q55 0 95.5 -41t40.5 -97q0 -58 -40.5 -98.5t-97.5 -40.5t-98 40.5t-41 97.5q0 58 41 98.5t100 40.5z" />
    <glyph glyph-name="ellipsis" unicode="&#x2026;" horiz-adv-x="685" 
d="M129 92q21 0 36 -15t15 -37q0 -21 -15 -36t-37 -15q-21 0 -36 15t-15 36q0 22 15 37t37 15zM343 92q21 0 36 -15t15 -37q0 -21 -15 -36t-37 -15q-21 0 -36 15t-15 36q0 22 15 37t37 15zM558 92q21 0 36 -15t15 -37q0 -21 -15 -36t-37 -15q-21 0 -36 15t-15 36q0 22 15 37
t37 15z" />
    <glyph glyph-name="perthousand" unicode="&#x2030;" horiz-adv-x="809" 
d="M435 667h49l-394 -667h-47zM384 314q51 0 86 -46.5t35 -113.5q0 -68 -35 -114t-87 -46q-51 0 -86 46.5t-35 113.5q0 68 35 114t87 46zM383 270q-31 0 -51 -33t-20 -83q0 -49 20.5 -82.5t50.5 -33.5q31 0 51.5 33t20.5 83t-20.5 83t-51.5 33zM667 314q51 0 86 -46.5
t35 -113.5q0 -68 -35 -114t-87 -46q-51 0 -86 46.5t-35 113.5q0 68 35 114t87 46zM666 270q-31 0 -51 -33t-20 -83q0 -49 20.5 -82.5t50.5 -33.5q31 0 51.5 33t20.5 83t-20.5 83t-51.5 33zM142 673q52 0 87 -46t35 -114t-35 -114t-87 -46q-51 0 -86 46.5t-35 113.5t35 113.5
t86 46.5zM142 629q-31 0 -51 -33t-20 -83q0 -49 20.5 -82.5t50.5 -33.5q31 0 51.5 33t20.5 83t-20.5 83t-51.5 33z" />
    <glyph glyph-name="guilsinglleft" unicode="&#x2039;" horiz-adv-x="220" 
d="M159 0h-38l-84 233l84 239h38l-72 -239z" />
    <glyph glyph-name="guilsinglright" unicode="&#x203a;" horiz-adv-x="220" 
d="M61 472h39l83 -233l-83 -239h-39l72 239z" />
    <glyph glyph-name="fraction" unicode="&#x2044;" horiz-adv-x="119" 
d="M227 650h48l-382 -650h-48z" />
    <glyph glyph-name="trademark" unicode="&#x2122;" horiz-adv-x="763" 
d="M11 667h261v-37h-108v-363h-44v363h-109v37zM335 667h65l124 -345l123 345h65v-400h-44v340l-124 -340h-41l-124 340v-340h-44v400z" />
    <glyph glyph-name="partialdiff" unicode="&#x2202;" 
d="M94 626l7 47q79 -12 133 -36.5t101 -69.5q61 -58 95.5 -145.5t34.5 -184.5q0 -92 -39 -153q-29 -44 -75.5 -70t-98.5 -26q-89 0 -152.5 66.5t-63.5 158.5q0 93 61 158t149 65q66 0 113 -35q18 -14 43 -49l-5 14q-31 107 -112 176t-191 84zM258 396q-71 0 -120 -53.5
t-49 -131.5q0 -75 48 -128.5t115 -53.5q68 0 114.5 54.5t46.5 134.5q0 77 -44 127.5t-111 50.5z" />
    <glyph glyph-name="product" unicode="&#x220f;" horiz-adv-x="686" 
d="M35 750h615v-48h-78v-904h78v-48h-213v48h83v904h-355v-904h82v-48h-212v48h78v904h-78v48z" />
    <glyph glyph-name="summation" unicode="&#x2211;" horiz-adv-x="667" 
d="M590 750v-220h-48l-4 171h-450l254 -430l-254 -473h460l2 170h50v-218h-569v55l250 466l-250 426v53h559z" />
    <glyph glyph-name="minus" unicode="&#x2212;" horiz-adv-x="520" 
d="M54 356h411v-40h-411v40z" />
    <glyph glyph-name="radical" unicode="&#x221a;" horiz-adv-x="667" 
d="M667 828v-48h-203l-234 -780h-59l-92 310h-79v48h121l44 -144q13 -42 34 -136h3l6 23l18 68l28 103l51 168l116 388h246z" />
    <glyph glyph-name="infinity" unicode="&#x221e;" horiz-adv-x="667" 
d="M334 304q-75 -114 -168 -114q-65 0 -106 42t-41 109q0 65 41.5 107t106.5 42q90 0 166 -114q40 60 80 87t89 27q65 0 105.5 -42t40.5 -109q0 -66 -40.5 -107.5t-105.5 -41.5q-49 0 -88.5 27t-79.5 87zM360 340q35 -56 67 -80.5t70 -24.5q43 0 71 29.5t28 75.5t-28 75.5
t-72 29.5q-38 0 -68.5 -23.5t-67.5 -81.5zM307 340q-37 57 -68 81t-70 24q-43 0 -70.5 -29.5t-27.5 -75.5t28 -75.5t71 -29.5q38 0 69 23.5t68 81.5z" />
    <glyph glyph-name="integral" unicode="&#x222b;" 
d="M113 -239l13 46q22 -10 41 -10q45 0 54 43q3 19 3 73v666q1 89 8 110q9 28 35 44.5t62 16.5q26 0 58 -11l-13 -46q-22 10 -41 10q-46 0 -54 -42q-3 -18 -3 -93v-646q0 -99 -15 -125q-27 -46 -99 -46q-25 0 -49 10z" />
    <glyph glyph-name="approxequal" unicode="&#x2248;" 
d="M44 347l-33 21q28 56 59.5 81.5t72.5 25.5q36 0 115 -38q70 -36 100 -36t52 17t46 58l33 -19q-54 -105 -136 -105q-23 0 -46.5 8.5t-92.5 42.5q-46 23 -75 23q-28 0 -49.5 -18t-45.5 -61zM44 194l-33 21q52 106 132 106q38 0 115 -38q69 -35 101 -35q29 0 51 17t46 58
l33 -20q-54 -104 -136 -104q-23 0 -46.5 8.5t-92.5 41.5q-47 23 -75 23t-50 -18t-45 -60z" />
    <glyph glyph-name="notequal" unicode="&#x2260;" 
d="M276 432l54 114l39 -12l-48 -102h146v-46h-168l-48 -102h216v-46h-238l-57 -121l-38 12l50 109h-151v46h173l48 102h-221v46h243z" />
    <glyph glyph-name="lessequal" unicode="&#x2264;" 
d="M466 588v-51l-377 -164l377 -165v-50l-433 191v46zM466 128v-48h-433v48h433z" />
    <glyph glyph-name="greaterequal" unicode="&#x2265;" 
d="M33 158v50l377 165l-377 164v51l433 -193v-46zM33 80v48h433v-48h-433z" />
    <glyph glyph-name="lozenge" unicode="&#x25ca;" horiz-adv-x="667" 
d="M334 693l259 -359l-259 -360l-260 360zM334 604l-197 -270l197 -271l197 271z" />
    <glyph glyph-name="apple" unicode="&#xf8ff;" horiz-adv-x="667" 
d="M481 691v-10q0 -81 -65 -132q-40 -31 -84 -31q-1 68 40.5 117t108.5 56zM624 457q-44 -34 -62.5 -66t-18.5 -73q0 -50 26.5 -90t73.5 -59q-38 -94 -82.5 -145t-87.5 -51q-14 0 -24.5 3.5t-56.5 23.5q-8 3 -37 3q-26 0 -37.5 -3t-51.5 -20q-22 -8 -39 -8q-42 0 -88 52
t-76 131t-30 152q0 65 27.5 119.5t73.5 79.5q37 20 86 20q34 0 77 -17q34 -13 47 -13q18 0 44 10q59 22 91 22q92 0 145 -71z" />
    <glyph glyph-name="fi" unicode="&#xfb01;" horiz-adv-x="476" 
d="M139 473h120v-43h-117v-430h-57v430h-68v43h68v31q0 85 16 117q30 57 104 57q28 0 64 -12v-53q-29 18 -60 18q-49 0 -63 -43q-7 -20 -7 -76v-39zM344 473h57v-473h-57v473zM372 675q19 0 31.5 -13t12.5 -32q0 -18 -12.5 -30.5t-31.5 -12.5t-31.5 12t-12.5 31t12.5 32
t31.5 13z" />
    <glyph glyph-name="fl" unicode="&#xfb02;" horiz-adv-x="476" 
d="M139 473h120v-43h-117v-430h-57v430h-68v43h68v31q0 85 16 117q30 57 104 57q28 0 64 -12v-53q-29 18 -60 18q-49 0 -63 -43q-7 -20 -7 -76v-39zM344 669h57v-669h-57v669z" />
    <glyph glyph-name="middot" horiz-adv-x="257" 
d="M129 302q21 0 36 -15t15 -37q0 -21 -15 -36t-37 -15q-21 0 -36 15t-15 36q0 22 15 37t37 15z" />
    </font>
</defs>
</svg>
